<svg width="15" height="15" viewBox="0 0 15 15" fill="none" xmlns="http://www.w3.org/2000/svg">
<path fill-rule="evenodd" clip-rule="evenodd" d="M7.8989 11.0477C8.97818 10.461 11.875 8.60828 11.875 5.625C11.875 3.20875 9.91625 1.25 7.5 1.25C5.08375 1.25 3.125 3.20875 3.125 5.625C3.125 8.60828 6.02182 10.461 7.1011 11.0477C7.35136 11.1838 7.64864 11.1838 7.8989 11.0477ZM7.5 7.5C8.53553 7.5 9.375 6.66053 9.375 5.625C9.375 4.58947 8.53553 3.75 7.5 3.75C6.46447 3.75 5.625 4.58947 5.625 5.625C5.625 6.66053 6.46447 7.5 7.5 7.5Z" fill="white"/>
<path d="M11.2889 10.3125C11.6728 10.5975 11.875 10.9209 11.875 11.25C11.875 11.5791 11.6728 11.9025 11.2889 12.1875C10.9049 12.4725 10.3526 12.7092 9.6875 12.8738C9.02242 13.0384 8.26797 13.125 7.5 13.125C6.73203 13.125 5.97758 13.0384 5.3125 12.8738C4.64742 12.7092 4.09513 12.4725 3.71114 12.1875C3.32715 11.9025 3.125 11.5791 3.125 11.25C3.125 10.9209 3.32715 10.5975 3.71114 10.3125" stroke="white" stroke-width="1.5" stroke-linecap="round"/>
</svg>
