<svg width="15" height="15" viewBox="0 0 15 15" fill="none" xmlns="http://www.w3.org/2000/svg">
<path fill-rule="evenodd" clip-rule="evenodd" d="M13.125 3.75H1.875V5.625C2.56536 5.625 3.125 6.18464 3.125 6.875V8.75C3.125 10.0306 3.125 10.6709 3.31728 11.1817C3.6216 11.9903 4.2597 12.6284 5.06825 12.9327C5.57913 13.125 6.21942 13.125 7.5 13.125C8.78058 13.125 9.42087 13.125 9.93175 12.9327C10.7403 12.6284 11.3784 11.9903 11.6827 11.1817C11.875 10.6709 11.875 10.0306 11.875 8.75V6.875C11.875 6.18464 12.4346 5.625 13.125 5.625V3.75ZM6.9375 6.875C6.9375 6.32272 6.48978 5.875 5.9375 5.875C5.38522 5.875 4.9375 6.32272 4.9375 6.875V10C4.9375 10.5523 5.38522 11 5.9375 11C6.48978 11 6.9375 10.5523 6.9375 10V6.875ZM10.0625 6.875C10.0625 6.32272 9.61478 5.875 9.0625 5.875C8.51022 5.875 8.0625 6.32272 8.0625 6.875V10C8.0625 10.5523 8.51022 11 9.0625 11C9.61478 11 10.0625 10.5523 10.0625 10V6.875Z" fill="white"/>
<path d="M6.29259 2.10662C6.36381 2.04017 6.52074 1.98146 6.73905 1.93958C6.95735 1.8977 7.22483 1.875 7.5 1.875C7.77517 1.875 8.04265 1.8977 8.26095 1.93958C8.47926 1.98145 8.63619 2.04017 8.70741 2.10662" stroke="white" stroke-width="2" stroke-linecap="round"/>
</svg>
