<svg width="15" height="15" viewBox="0 0 15 15" fill="none" xmlns="http://www.w3.org/2000/svg">
<path fill-rule="evenodd" clip-rule="evenodd" d="M7.625 1.25V3.625L7.625 3.65792C7.62497 4.10116 7.62495 4.48307 7.66607 4.7889C7.71014 5.11665 7.80951 5.43083 8.06434 5.68566C8.31917 5.94049 8.63335 6.03986 8.9611 6.08393C9.26693 6.12505 9.64884 6.12503 10.0921 6.125L10.125 6.125H12.5V10C12.5 11.7678 12.5 12.6517 11.9508 13.2008C11.4017 13.75 10.5178 13.75 8.75 13.75H6.25C4.48223 13.75 3.59835 13.75 3.04917 13.2008C2.5 12.6517 2.5 11.7678 2.5 10V5C2.5 3.23223 2.5 2.34835 3.04917 1.79917C3.59835 1.25 4.48223 1.25 6.25 1.25H7.625ZM8.625 1.25083V3.625C8.625 4.11054 8.62606 4.42439 8.65715 4.65565C8.68631 4.87252 8.73338 4.94049 8.77145 4.97855C8.80951 5.01662 8.87748 5.06369 9.09435 5.09285C9.32561 5.12394 9.63946 5.125 10.125 5.125H12.4992C12.496 4.79532 12.4804 4.59675 12.4049 4.41441C12.3097 4.1847 12.1291 4.00406 11.7678 3.64277L11.7678 3.64277L10.1072 1.98223C9.74595 1.62095 9.5653 1.4403 9.33559 1.34515C9.15325 1.26962 8.95468 1.25405 8.625 1.25083ZM5.125 8.125C5.125 7.84886 5.34886 7.625 5.625 7.625L9.375 7.625C9.65114 7.625 9.875 7.84886 9.875 8.125C9.875 8.40114 9.65114 8.625 9.375 8.625L5.625 8.625C5.34886 8.625 5.125 8.40114 5.125 8.125ZM5.625 10.125C5.34886 10.125 5.125 10.3489 5.125 10.625C5.125 10.9011 5.34886 11.125 5.625 11.125H8.125C8.40114 11.125 8.625 10.9011 8.625 10.625C8.625 10.3489 8.40114 10.125 8.125 10.125H5.625Z" fill="#4A7EB2"/>
</svg>
