<svg width="15" height="15" viewBox="0 0 15 15" fill="none" xmlns="http://www.w3.org/2000/svg">
<path fill-rule="evenodd" clip-rule="evenodd" d="M2.12868 2.12884C1.25 3.00752 1.25 4.42173 1.25 7.25016V7.75016C1.25 10.5786 1.25 11.9928 2.12868 12.8715C3.00736 13.7502 4.42157 13.7502 7.25 13.7502H7.75C10.5784 13.7502 11.9926 13.7502 12.8713 12.8715C13.75 11.9928 13.75 10.5786 13.75 7.75016V7.25016C13.75 5.24599 13.75 3.95188 13.4374 3.05522C13.4375 3.11786 13.4375 3.18281 13.4375 3.25016V9.96225C13.4375 10.3284 13.1407 10.6252 12.7746 10.6252C12.5988 10.6252 12.4302 10.5553 12.3058 10.431L11.0093 9.13443L11.0093 9.13443C10.728 8.85313 10.5873 8.71248 10.4348 8.63883C10.1601 8.50622 9.83991 8.50622 9.56524 8.63883C9.41268 8.71248 9.27203 8.85313 8.99073 9.13443L8.99072 9.13444C8.59347 9.53169 8.39484 9.73032 8.19751 9.80651C7.84069 9.94428 7.43655 9.86645 7.15642 9.60602C7.0015 9.46199 6.89085 9.2038 6.66954 8.68743L6.66954 8.68742L6.66954 8.68741L6.35189 7.94623L6.35188 7.94622C6.22309 7.64569 6.15869 7.49543 6.0849 7.39799C5.77621 6.99034 5.20971 6.88125 4.7717 7.14509C4.66701 7.20815 4.55141 7.32375 4.32022 7.55494L4.3202 7.55496L4.3202 7.55496C3.96674 7.90842 3.79001 8.08515 3.65962 8.15498C3.10312 8.45302 2.41308 8.1672 2.23032 7.56295C2.1875 7.42137 2.1875 7.17143 2.1875 6.67157V3.25016C2.1875 2.69745 2.1875 2.30674 2.24651 2.01904C2.20617 2.05403 2.16692 2.0906 2.12868 2.12884Z" fill="#4A7EB2"/>
<path d="M7.25 2H7.75C9.18542 2 10.1865 2.00159 10.9419 2.10315C11.6757 2.2018 12.0642 2.38225 12.341 2.65901C12.6178 2.93577 12.7982 3.32434 12.8969 4.05812C12.9984 4.81347 13 5.81458 13 7.25V7.75C13 9.18542 12.9984 10.1865 12.8969 10.9419C12.7982 11.6757 12.6178 12.0642 12.341 12.341C12.0642 12.6178 11.6757 12.7982 10.9419 12.8969C10.1865 12.9984 9.18542 13 7.75 13H7.25C5.81458 13 4.81347 12.9984 4.05812 12.8969C3.32434 12.7982 2.93577 12.6178 2.65901 12.341C2.38225 12.0642 2.2018 11.6757 2.10315 10.9419C2.00159 10.1865 2 9.18542 2 7.75V7.25C2 5.81458 2.00159 4.81347 2.10315 4.05812C2.2018 3.32434 2.38225 2.93577 2.65901 2.65901C2.93577 2.38225 3.32434 2.2018 4.05812 2.10315C4.81347 2.00159 5.81458 2 7.25 2Z" stroke="#4A7EB2" stroke-width="1.5"/>
<ellipse cx="9.375" cy="5.625" rx="1.25" ry="1.25" fill="#4A7EB2"/>
</svg>
