<svg width="19" height="19" viewBox="0 0 19 19" fill="none" xmlns="http://www.w3.org/2000/svg">
<path d="M9.90749 11.3199L6.84563 13.0877L8.6134 16.1495" stroke="white"/>
<path d="M13.4111 8.05306C13.6099 8.79486 13.6099 9.57592 13.4111 10.3177C13.2124 11.0595 12.8218 11.7359 12.2788 12.279C11.7358 12.822 11.0593 13.2125 10.3175 13.4113C9.57573 13.6101 8.79467 13.6101 8.05286 13.4113" stroke="white" stroke-width="1.5" stroke-linecap="round"/>
<path d="M8.4636 7.05119L11.5255 5.28343L9.7577 2.22157" stroke="white"/>
<path d="M4.95997 10.318C4.7612 9.57623 4.7612 8.79518 4.95997 8.05337C5.15874 7.31157 5.54926 6.63515 6.0923 6.09211C6.63534 5.54907 7.31176 5.15855 8.05356 4.95978C8.79537 4.76101 9.57642 4.76101 10.3182 4.95978" stroke="white" stroke-width="1.5" stroke-linecap="round"/>
</svg>
