<svg width="15" height="15" viewBox="0 0 15 15" fill="none" xmlns="http://www.w3.org/2000/svg">
<path fill-rule="evenodd" clip-rule="evenodd" d="M7.5 13.125C10.6066 13.125 13.125 10.6066 13.125 7.5C13.125 4.3934 10.6066 1.875 7.5 1.875C4.3934 1.875 1.875 4.3934 1.875 7.5C1.875 10.6066 4.3934 13.125 7.5 13.125ZM10.5762 6.10514C10.8413 5.78693 10.7983 5.31401 10.4801 5.04883C10.1619 4.78366 9.68901 4.82665 9.42383 5.14486L6.99986 8.05363C6.93064 8.13669 6.87426 8.20429 6.82451 8.262C6.76974 8.20903 6.70747 8.14681 6.63102 8.07036L5.53033 6.96967C5.23744 6.67678 4.76256 6.67678 4.46967 6.96967C4.17678 7.26256 4.17678 7.73744 4.46967 8.03033L5.57036 9.13102L5.59633 9.15701C5.75427 9.31506 5.92273 9.48365 6.08318 9.60498C6.26968 9.746 6.54106 9.8992 6.89804 9.88301C7.25503 9.86682 7.51142 9.68968 7.68439 9.53235C7.83319 9.39699 7.9857 9.21384 8.12868 9.04214L8.15219 9.01391L10.5762 6.10514Z" fill="white"/>
</svg>
