<svg width="15" height="15" viewBox="0 0 15 15" fill="none" xmlns="http://www.w3.org/2000/svg">
<path d="M10 13.125V11.375C10 10.4322 10 9.96079 9.70711 9.66789C9.41421 9.375 8.94281 9.375 8 9.375H6.375C5.43219 9.375 4.96079 9.375 4.66789 9.66789C4.375 9.96079 4.375 10.4322 4.375 11.375V13.125" stroke="white" stroke-width="1.5"/>
<path d="M4.375 5H7.5" stroke="white" stroke-linecap="round"/>
<path d="M1.875 2.875C1.875 2.32272 2.32272 1.875 2.875 1.875H10.2108C10.476 1.875 10.7304 1.98036 10.9179 2.16789L12.8321 4.08211C13.0196 4.26964 13.125 4.524 13.125 4.78921V12.125C13.125 12.6773 12.6773 13.125 12.125 13.125H2.875C2.32272 13.125 1.875 12.6773 1.875 12.125V2.875Z" stroke="white" stroke-width="1.5"/>
</svg>
