<svg width="15" height="15" viewBox="0 0 15 15" fill="none" xmlns="http://www.w3.org/2000/svg">
<path d="M2.59899 8.70664C2.15336 7.96393 2.15336 7.03607 2.59899 6.29336C2.73497 6.06671 2.96026 5.90795 3.21944 5.85611L4.27758 5.64448C4.34062 5.63188 4.39744 5.59807 4.4386 5.54868L4.80545 5.10846C5.86975 3.8313 6.4019 3.19272 6.88313 3.30588C6.94363 3.32011 7.00228 3.34134 7.05787 3.36915C7.5 3.59029 7.5 4.42153 7.5 6.08403L7.5 8.91597C7.5 10.5785 7.5 11.4097 7.05787 11.6309C7.00228 11.6587 6.94363 11.6799 6.88313 11.6941C6.4019 11.8073 5.86975 11.1687 4.80545 9.89154L4.4386 9.45132C4.39745 9.40193 4.34062 9.36812 4.27758 9.35552L3.21944 9.14389C2.96026 9.09205 2.73497 8.93329 2.59899 8.70664Z" fill="white"/>
<path d="M9.08471 5.29029C9.66774 5.87333 9.99673 6.66316 9.99998 7.48769C10.0032 8.31222 9.68047 9.10462 9.10205 9.69223" stroke="white" stroke-linecap="round"/>
<path d="M11.6605 3.96447C12.5934 4.89732 13.1198 6.16105 13.125 7.4803C13.1302 8.79955 12.6138 10.0674 11.6883 11.0076" stroke="white" stroke-linecap="round"/>
</svg>
